<svg width="63" height="24" viewBox="0 0 63 24" fill="none" xmlns="http://www.w3.org/2000/svg">
<path d="M12 19.25C8 19.25 4.75 16 4.75 12C4.75 8 8 4.75 12 4.75C16 4.75 19.25 8 19.25 12C19.25 16 16 19.25 12 19.25ZM12 6.25C8.83 6.25 6.25 8.83 6.25 12C6.25 15.17 8.83 17.75 12 17.75C15.17 17.75 17.75 15.17 17.75 12C17.75 8.83 15.17 6.25 12 6.25Z" fill="white"/>
<path d="M12 22.96C11.45 22.96 11 22.55 11 22V21.92C11 21.37 11.45 20.92 12 20.92C12.55 20.92 13 21.37 13 21.92C13 22.47 12.55 22.96 12 22.96ZM19.14 20.14C18.88 20.14 18.63 20.04 18.43 19.85L18.3 19.72C17.91 19.33 17.91 18.7 18.3 18.31C18.69 17.92 19.32 17.92 19.71 18.31L19.84 18.44C20.23 18.83 20.23 19.46 19.84 19.85C19.65 20.04 19.4 20.14 19.14 20.14ZM4.86 20.14C4.6 20.14 4.35 20.04 4.15 19.85C3.76 19.46 3.76 18.83 4.15 18.44L4.28 18.31C4.67 17.92 5.3 17.92 5.69 18.31C6.08 18.7 6.08 19.33 5.69 19.72L5.56 19.85C5.37 20.04 5.11 20.14 4.86 20.14ZM22 13H21.92C21.37 13 20.92 12.55 20.92 12C20.92 11.45 21.37 11 21.92 11C22.47 11 22.96 11.45 22.96 12C22.96 12.55 22.55 13 22 13ZM2.08 13H2C1.45 13 1 12.55 1 12C1 11.45 1.45 11 2 11C2.55 11 3.04 11.45 3.04 12C3.04 12.55 2.63 13 2.08 13ZM19.01 5.99C18.75 5.99 18.5 5.89 18.3 5.7C17.91 5.31 17.91 4.68 18.3 4.29L18.43 4.16C18.82 3.77 19.45 3.77 19.84 4.16C20.23 4.55 20.23 5.18 19.84 5.57L19.71 5.7C19.52 5.89 19.27 5.99 19.01 5.99ZM4.99 5.99C4.73 5.99 4.48 5.89 4.28 5.7L4.15 5.56C3.76 5.17 3.76 4.54 4.15 4.15C4.54 3.76 5.17 3.76 5.56 4.15L5.69 4.28C6.08 4.67 6.08 5.3 5.69 5.69C5.5 5.89 5.24 5.99 4.99 5.99ZM12 3.04C11.45 3.04 11 2.63 11 2.08V2C11 1.45 11.45 1 12 1C12.55 1 13 1.45 13 2C13 2.55 12.55 3.04 12 3.04Z" fill="white"/>
<path d="M51.9793 22.241L51.9793 22.2409L51.9722 22.2406C46.6203 22.0017 42.1504 17.686 41.7787 12.4447L41.7787 12.4442C41.4543 7.94125 44.0583 3.72964 48.2629 1.9614C48.8155 1.73167 49.191 1.72373 49.4306 1.77165C49.6701 1.81954 49.8177 1.93194 49.9002 2.01741L49.9002 2.01746L49.9064 2.02367C49.9912 2.10843 50.0995 2.25509 50.1442 2.48454C50.1887 2.71296 50.1792 3.06939 49.9518 3.58991L49.9513 3.59107C49.4636 4.71491 49.2195 5.91384 49.23 7.1434C49.2518 11.8463 53.1486 15.8185 57.8985 16.0097C58.5886 16.0414 59.2652 15.9881 59.9173 15.8724L59.9194 15.872C60.5024 15.7661 60.8651 15.8384 61.0844 15.9351C61.3035 16.0317 61.4219 16.1714 61.4845 16.2729C61.5493 16.3777 61.6232 16.5483 61.6141 16.7885C61.6049 17.0286 61.5109 17.3863 61.1582 17.8625L61.1563 17.865C59.1319 20.6343 55.9128 22.2501 52.4599 22.2501C52.2875 22.2501 52.1322 22.25 51.9793 22.241ZM42.2711 12.4044L42.2712 12.4057C42.6297 17.4243 46.8995 21.5182 51.987 21.7396C55.4443 21.9073 58.7243 20.3307 60.7432 17.5757L60.7433 17.5757L60.7468 17.5707C60.9192 17.3294 61.0111 17.1411 61.0581 17.0157L61.2837 16.4141L60.6452 16.3432C60.514 16.3286 60.3031 16.3182 59.9974 16.3787C59.3054 16.5016 58.5833 16.549 57.8699 16.5205L57.8698 16.5205C52.8528 16.321 48.7492 12.1062 48.7199 7.15865C48.7201 5.84669 48.9764 4.58694 49.4965 3.40409C49.6239 3.1228 49.6527 2.91939 49.6661 2.81213L49.7363 2.25011H49.1699C49.0001 2.25011 48.7738 2.2891 48.4658 2.41936C44.4609 4.1015 41.9763 8.11911 42.2711 12.4044Z" stroke="#090D1F"/>
</svg>
