<svg width="22" height="22" viewBox="0 0 22 22" fill="none" xmlns="http://www.w3.org/2000/svg">
    <path d="M10.9794 21.241L10.9794 21.2409L10.9723 21.2406C5.62041 21.0017 1.15041 16.686 0.778757 11.4447L0.778717 11.4442C0.454353 6.94125 3.05841 2.72964 7.26292 0.961403C7.81553 0.731669 8.19107 0.723728 8.4307 0.771655C8.67013 0.81954 8.81779 0.931941 8.90031 1.01741L8.90025 1.01746L8.90646 1.02367C8.99122 1.10843 9.09952 1.25509 9.14425 1.48454C9.18878 1.71296 9.1793 2.06939 8.95184 2.58991L8.95134 2.59107C8.46363 3.71491 8.21956 4.91384 8.23002 6.1434C8.25182 10.8463 12.1487 14.8185 16.8985 15.0097C17.5887 15.0414 18.2653 14.9881 18.9174 14.8724L18.9195 14.872C19.5024 14.7661 19.8652 14.8384 20.0845 14.9351C20.3035 15.0317 20.4219 15.1714 20.4846 15.2729C20.5494 15.3777 20.6233 15.5483 20.6141 15.7885C20.605 16.0286 20.511 16.3863 20.1582 16.8625L20.1564 16.865C18.1319 19.6343 14.9129 21.2501 11.46 21.2501C11.2876 21.2501 11.1323 21.25 10.9794 21.241ZM1.27119 11.4044L1.27128 11.4057C1.62975 16.4243 5.89952 20.5182 10.987 20.7396C14.4443 20.9073 17.7243 19.3307 19.7433 16.5757L19.7433 16.5757L19.7469 16.5707C19.9192 16.3294 20.0111 16.1411 20.0582 16.0157L20.2838 15.4141L19.6452 15.3432C19.514 15.3286 19.3032 15.3182 18.9974 15.3787C18.3055 15.5016 17.5833 15.549 16.87 15.5205L16.8699 15.5205C11.8529 15.321 7.74922 11.1062 7.72001 6.15865C7.7202 4.84669 7.97651 3.58694 8.49652 2.40409C8.62394 2.1228 8.65274 1.91939 8.66615 1.81213L8.7364 1.25011H8.17001C8.00018 1.25011 7.77391 1.2891 7.46583 1.41936C3.46093 3.1015 0.976375 7.11911 1.27119 11.4044Z" stroke="#090D1F"/>
</svg>
